# xmcd CD database file
#
# Track frame offsets:
#	150
#	10745
#	26373
#	39773
#	54128
#	67328
#	82060
#	95403
#	109898
#	125648
#	139638
#	153883
#	166518
#	178943
#	191448
#	212043
#	230480
#
# Disc length: 3335 seconds
#
# Revision: 0
# Processed by: cddbd v1.5.1PL2 Copyright (c) Steve Scherf et al.
# Submitted via: CDex 1.51
#
DISCID=d80d0511
DTITLE=Louis Armstrong - Greatest Hits
DYEAR=1900
DGENRE=Jazz
TTITLE0=What a Wonderful World
TTITLE1=La Vie en Rose
TTITLE2=Sincerely
TTITLE3=Down by the Riverside
TTITLE4=Blueberry Hill
TTITLE5=Because of You
TTITLE6=Takes Two to Tango
TTITLE7=Indian Love Call
TTITLE8=(When we are dancing) I Get Ideas
TTITLE9=C'est Si Bon
TTITLE10=Kiss of Fire
TTITLE11=Ramona
TTITLE12=April in Portugal
TTITLE13=Your Cheating Heart
TTITLE14=On the Sunny Side of the Street
TTITLE15=When You're Smiling
TTITLE16=When the Saints go Marching In
EXTD=
EXTT0=
EXTT1=
EXTT2=
EXTT3=
EXTT4=
EXTT5=
EXTT6=
EXTT7=
EXTT8=
EXTT9=
EXTT10=
EXTT11=
EXTT12=
EXTT13=
EXTT14=
EXTT15=
EXTT16=
PLAYORDER=
